HIERARCHY
ROOT Hips
{
	OFFSET -0.179506 -22.333345 2.821913
	CHANNELS 6 Xposition Yposition Zposition Zrotation Yrotation Xrotation 
	JOINT LeftUpLeg
	{
		OFFSET 6.951974 -9.140623 -0.681533
		CHANNELS 3 Zrotation Yrotation Xrotation
		JOINT LeftLeg
		{
			OFFSET 3.427654 -37.519855 -0.449580
			CHANNELS 3 Zrotation Yrotation Xrotation
			JOINT LeftFoot
			{
				OFFSET -1.359570 -39.796059 -4.369333
				CHANNELS 3 Zrotation Yrotation Xrotation
				JOINT LeftToe
				{
					OFFSET 2.635814 -5.579078 11.928840
					CHANNELS 3 Zrotation Yrotation Xrotation
					End Site
					{
						OFFSET 0.000000 0.000000 0.000000
					}
				}
			}
		}
	}
	JOINT RightUpLeg
	{
		OFFSET -6.767048 -9.052170 -0.431982
		CHANNELS 3 Zrotation Yrotation Xrotation
		JOINT RightLeg
		{
			OFFSET -3.829005 -38.256897 -0.885003
			CHANNELS 3 Zrotation Yrotation Xrotation
			JOINT RightFoot
			{
				OFFSET 1.577377 -39.841461 -4.231180
				CHANNELS 3 Zrotation Yrotation Xrotation
				JOINT RightToe
				{
					OFFSET -2.537174 -4.814398 12.334795
					CHANNELS 3 Zrotation Yrotation Xrotation
					End Site
					{
						OFFSET 0.000000 0.000000 0.000000
					}
				}
			}
		}
	}
	JOINT Spine
	{
		OFFSET -0.253288 10.896323 -2.669631
		CHANNELS 3 Zrotation Yrotation Xrotation
		JOINT Spine1
		{
			OFFSET 0.548704 13.518043 0.109247
			CHANNELS 3 Zrotation Yrotation Xrotation
			JOINT Spine2
			{
				OFFSET 0.145701 5.292222 2.542457
				CHANNELS 3 Zrotation Yrotation Xrotation
				JOINT Neck
				{
					OFFSET -0.277840 21.387037 -4.285703
					CHANNELS 3 Zrotation Yrotation Xrotation
					JOINT Head
					{
						OFFSET 0.515184 6.496960 5.134897
						CHANNELS 3 Zrotation Yrotation Xrotation
						End Site
						{
							OFFSET 0.000000 0.000000 0.000000
						}
					}
				}
				JOINT LeftShoulder
				{
					OFFSET 7.884473 12.174932 -3.408961
					CHANNELS 3 Zrotation Yrotation Xrotation
					JOINT LeftArm
					{
						OFFSET 9.097692 3.046888 -0.886815
						CHANNELS 3 Zrotation Yrotation Xrotation
						JOINT LeftForeArm
						{
							OFFSET 25.961220 -1.277207 -2.745643
							CHANNELS 3 Zrotation Yrotation Xrotation
							JOINT LeftHand
							{
								OFFSET 24.923361 0.898606 -0.117091
								CHANNELS 3 Zrotation Yrotation Xrotation
								End Site
								{
									OFFSET 0.000000 0.000000 0.000000
								}
							}
						}
					}
				}
				JOINT RightShoulder
				{
					OFFSET -8.175920 11.883285 -3.861528
					CHANNELS 3 Zrotation Yrotation Xrotation
					JOINT RightArm
					{
						OFFSET -9.601238 3.255117 -0.914307
						CHANNELS 3 Zrotation Yrotation Xrotation
						JOINT RightForeArm
						{
							OFFSET -25.374195 -1.332924 -2.140099
							CHANNELS 3 Zrotation Yrotation Xrotation
							JOINT RightHand
							{
								OFFSET -25.529810 0.777228 -0.555919
								CHANNELS 3 Zrotation Yrotation Xrotation
								End Site
								{
									OFFSET 0.000000 0.000000 0.000000
								}
							}
						}
					}
				}
			}
		}
	}
}
MOTION
Frames: 9
Frame Time: 0.033333
1.351021 -1.067973 99.263840 178.829222 -0.616071 84.916986 4.468133 3.816632 10.534626 -2.979384 -3.230105 -4.529952 2.914598 8.099822 -6.538793 nan nan nan -3.696693 -3.853700 8.868017 3.367138 -2.232281 -2.913455 5.496914 -3.823027 -3.675332 nan nan nan 0.097706 0.808695 6.857914 0.732826 -2.395935 2.505049 0.644424 -0.538394 1.965378 -1.792477 0.413185 -1.537449 -0.914367 -2.423469 1.983692 -25.643656 2.633498 4.314830 -60.194321 -6.792936 9.029862 6.777298 -26.679149 9.713683 -5.073116 -3.681835 -9.071968 26.288566 2.113383 4.629237 57.828976 5.282486 11.009612 -10.674081 19.446940 -6.560709 5.775545 2.500881 -10.267765 
1.375299 -1.039091 99.244781 178.924301 -0.488527 84.924269 4.668289 3.740493 10.643990 -3.033086 -3.252107 -4.764640 2.782452 7.988983 -6.487160 nan nan nan -3.925128 -3.741957 9.758682 4.086422 -2.027933 -4.574653 5.816197 -3.836109 -2.984498 nan nan nan 0.182713 0.885576 6.673481 0.739221 -2.474827 2.695225 0.710281 -0.553775 1.900175 -1.912750 0.225286 -1.219886 -0.798691 -2.388096 1.740043 -25.546828 2.518621 4.489606 -60.369895 -6.910087 9.022375 6.954570 -26.538864 9.509934 -5.151868 -3.768069 -9.557886 26.228307 2.087821 4.701570 57.899067 5.282282 10.948894 -10.741262 19.511821 -6.554610 5.916950 2.354750 -10.523130 
1.374578 -1.035471 99.235321 178.910839 -0.460458 84.919884 4.673116 3.673765 10.653356 -3.007008 -3.204452 -4.783487 2.809124 8.049753 -6.458462 nan nan nan -3.872843 -3.708285 9.731640 4.082924 -2.021555 -4.545271 5.788556 -3.879470 -3.056177 nan nan nan 0.218591 0.910307 6.667329 0.727584 -2.456796 2.688572 0.707690 -0.567289 1.917006 -1.909485 0.233735 -1.209461 -0.798305 -2.383073 1.739116 -25.518334 2.479958 4.493676 -60.373217 -6.917816 9.042011 6.966094 -26.507219 9.519999 -5.114496 -3.734649 -9.540286 26.215951 2.078172 4.693713 57.943786 5.264996 10.964801 -10.763789 19.526620 -6.519424 5.864518 2.355119 -10.519642 
1.366679 -1.043974 99.230682 178.892579 -0.432667 84.936410 4.681996 3.660417 10.636249 -2.988422 -3.140825 -4.788084 2.812019 8.065996 -6.427946 nan nan nan -3.849408 -3.733362 9.694611 4.088428 -2.008779 -4.534123 5.777600 -3.856972 -3.035589 nan nan nan 0.253144 0.927245 6.667355 0.718969 -2.451315 2.665113 0.708318 -0.570738 1.923262 -1.920231 0.268374 -1.199007 -0.813189 -2.327309 1.749813 -25.509581 2.442231 4.521629 -60.356273 -6.915378 9.047510 6.941298 -26.537855 9.489913 -5.088666 -3.784099 -9.533550 26.194863 2.087965 4.726015 57.954934 5.249187 10.983932 -10.761655 19.546413 -6.474598 5.830667 2.417922 -10.495650 
1.353565 -1.101496 99.232147 178.789592 -0.457908 85.034033 4.653164 3.434767 10.703380 -3.147985 -2.510668 -5.066171 2.904559 7.834457 -6.338474 nan nan nan -3.977406 -3.422864 9.703570 4.458435 -2.470037 -4.810655 5.826147 -3.839877 -2.726275 nan nan nan 0.211001 0.869618 6.484292 0.787987 -2.446183 2.787872 0.499949 -0.402380 2.156696 -2.010393 1.359000 -1.802671 -1.117039 -2.149620 1.908069 -25.280663 2.420479 4.651439 -59.785738 -6.438916 9.777098 7.827366 -26.378101 11.802622 -7.268848 -8.540225 -9.181514 26.328944 1.986469 4.763580 58.043033 5.582283 11.340754 -11.083783 19.368180 -6.091128 5.681149 3.691607 -11.328135 
1.357392 -1.237871 99.208107 178.378721 -0.440732 85.229943 4.909211 3.347500 10.442635 -3.804078 -1.987258 -4.947253 3.615821 7.832392 -6.505055 nan nan nan -4.190061 -3.957190 9.229816 4.865023 -2.284188 -4.581900 5.670536 -3.417754 -2.595097 nan nan nan 0.165498 1.115766 6.388418 0.834830 -2.460422 2.742372 0.590449 -0.200269 2.024751 -2.213766 1.581148 -0.980548 -0.163050 -1.858581 1.681013 -24.976573 2.143474 4.894368 -60.634688 -6.453652 9.742698 8.000349 -25.536550 11.129131 -5.804504 -9.687424 -10.845498 26.034119 2.170626 5.254524 58.386103 5.671050 11.247271 -11.526822 19.517777 -6.089168 5.301440 4.334768 -12.130892 
1.357766 -1.221502 99.224091 178.421778 -0.470490 85.222502 4.878237 3.267111 10.503488 -3.864058 -1.969018 -5.011701 3.783523 7.854820 -6.563513 nan nan nan -4.203593 -4.025002 9.321887 4.823130 -2.219215 -4.677023 5.676111 -3.464298 -2.537752 nan nan nan 0.087198 1.145549 6.296769 0.861115 -2.542604 2.828340 0.628145 -0.209680 2.045855 -2.203419 1.643486 -0.959281 -0.128061 -1.780989 1.583144 -25.004734 2.144355 4.887961 -60.664075 -6.454388 9.747325 7.975670 -25.497889 11.136441 -5.601364 -9.564387 -10.775121 26.025212 2.177505 5.250638 58.441599 5.673622 11.272886 -11.691792 19.568500 -6.071287 5.274148 4.344738 -11.969089 
1.356073 -1.215644 99.236702 178.459174 -0.487397 85.208107 4.841737 3.243820 10.527494 -3.852401 -1.964382 -4.995476 3.839965 7.836121 -6.624329 nan nan nan -4.216124 -4.014341 9.368688 4.815967 -2.291922 -4.686685 5.690965 -3.487536 -2.543488 nan nan nan 0.052304 1.124604 6.280542 0.865693 -2.603190 2.833224 0.645828 -0.212934 2.056768 -2.185154 1.679033 -0.964182 -0.170635 -1.724836 1.575689 -24.988583 2.171165 4.902250 -60.709599 -6.462082 9.745760 7.977979 -25.460167 11.151805 -5.596779 -9.591689 -10.775002 25.969067 2.209667 5.261120 58.546668 5.707308 11.275971 -11.740856 19.504458 -6.135303 5.286235 4.395895 -12.003321 
1.361539 -1.225047 99.248039 178.496906 -0.493895 85.213989 4.817042 3.289531 10.482959 -3.809434 -1.954388 -4.928029 3.826294 7.778924 -6.682303 nan nan nan -4.218434 -3.975303 9.358452 4.805207 -2.301619 -4.665021 5.720914 -3.508227 -2.540326 nan nan nan 0.022650 1.078935 6.286819 0.889149 -2.618295 2.784195 0.654565 -0.217397 2.103044 -2.141525 1.647375 -1.127821 -0.289808 -1.734739 1.727582 -24.980057 2.212042 4.874843 -60.747764 -6.483253 9.752733 7.964636 -25.395406 11.101554 -5.536679 -9.753708 -10.942845 25.952044 2.207051 5.220484 58.580528 5.739585 11.331074 -11.745336 19.452141 -6.182060 5.261529 4.432072 -12.079185 
